<svg xmlns="http://www.w3.org/2000/svg" version="1.1" xmlns:xlink="http://www.w3.org/1999/xlink" xmlns:svgjs="http://svgjs.dev/svgjs" width="350" height="67" viewBox="0 0 1500 537"><g transform="matrix(1,0,0,1,-0.9090909090909918,-0.6254334853755381)"><svg viewBox="0 0 396 142" data-background-color="#ffffff" preserveAspectRatio="xMidYMid meet" height="537" width="1500" xmlns="http://www.w3.org/2000/svg" xmlns:xlink="http://www.w3.org/1999/xlink"><g id="tight-bounds" transform="matrix(1,0,0,1,0.2400000000000091,0.16538464603971192)"><svg viewBox="0 0 395.52 141.66923070792058" height="141.66923070792058" width="395.52"><g><svg viewBox="0 0 682.4170006719381 244.43136" height="141.66923070792058" width="395.52"><g transform="matrix(1,0,0,1,286.8970006719381,86.2394344926735)"><svg viewBox="0 0 395.52000000000004 71.95249101465302" height="71.95249101465302" width="395.52000000000004"><g id="textblocktransform"><svg viewBox="0 0 395.52000000000004 71.95249101465302" height="71.95249101465302" width="395.52000000000004" id="textblock"><g><svg viewBox="0 0 395.52000000000004 71.95249101465302" height="71.95249101465302" width="395.52000000000004"><g transform="matrix(1,0,0,1,0,0)"><svg width="395.52000000000004" viewBox="0.6 -32.4 180.83 32.9" height="71.95249101465302" data-palette-color="url(#3194d70a-4dca-4597-9749-c4de3d9b592c)"></svg></g></svg></g></svg></g></svg></g><g><svg viewBox="0 0 244.43136 244.43136" height="244.43136" width="244.43136"><g><svg viewBox="0 0 244.43136 244.43136" height="244.43136" width="244.43136"><g transform="matrix(1,0,0,1,64.60265593644993,73.88412543195307)"><svg viewBox="0 0 115.22604812710016 96.66310913609387" height="96.66310913609387" width="115.22604812710016"><g><svg xmlns="http://www.w3.org/2000/svg" xmlns:xlink="http://www.w3.org/1999/xlink" version="1.0" x="0" y="0" viewBox="24.5 28.700000000000006 50.89999999999999 42.7" enable-background="new 0 0 100 100" xml:space="preserve" height="96.66310913609387" width="115.22604812710016" class="icon-cg-0" data-fill-palette-color="accent" id="cg-0"></svg></g></svg></g><g id="text-0"></g><g id="text-1"></g></svg></g></svg></g></svg></g><defs></defs><mask id="19a3a8a9-c16f-4a4f-b8bb-ccd07c26c00b"><g id="SvgjsG1698"><svg viewBox="0 0 395.52 141.66923070792058" height="141.66923070792058" width="395.52"><g><svg viewBox="0 0 682.4170006719381 244.43136" height="141.66923070792058" width="395.52"><g transform="matrix(1,0,0,1,286.8970006719381,86.2394344926735)"><svg viewBox="0 0 395.52000000000004 71.95249101465302" height="71.95249101465302" width="395.52000000000004"><g id="SvgjsG1697"><svg viewBox="0 0 395.52000000000004 71.95249101465302" height="71.95249101465302" width="395.52000000000004" id="SvgjsSvg1696"><g><svg viewBox="0 0 395.52000000000004 71.95249101465302" height="71.95249101465302" width="395.52000000000004"><g transform="matrix(1,0,0,1,0,0)"><svg width="395.52000000000004" viewBox="0.6 -32.4 180.83 32.9" height="71.95249101465302" data-palette-color="url(#3194d70a-4dca-4597-9749-c4de3d9b592c)"><path d="M15.65-31.05L24.65-31.05 19.4 0 6.2 0 0.6-31.05 10.05-31.05 12.75-10.7 13.6-10.7 15.65-31.05ZM35.2-23.7L35.2 0 26.95 0 26.95-23.7 35.2-23.7ZM27.6-25.6Q26.55-26.5 26.55-28.5 26.55-30.5 27.6-31.45 28.65-32.4 31.05-32.4 33.45-32.4 34.5-31.45 35.55-30.5 35.55-28.53 35.55-26.55 34.5-25.63 33.45-24.7 31.05-24.7 28.65-24.7 27.6-25.6ZM51.14-24.5Q55.84-24.5 57.39-21.78 58.95-19.05 58.95-12.43 58.95-5.8 57.3-2.65 55.64 0.5 50.84 0.5L50.84 0.5Q47.09 0.5 45.59-1.45L45.59-1.45 45.39-1.45 44.89 0 38.34 0 38.34-32.05 46.7-32.05 46.7-23.4 46.89-23.4Q48.55-24.5 51.14-24.5L51.14-24.5ZM50.27-7.53Q50.45-8.4 50.49-9.25 50.55-10.1 50.55-12.48 50.55-14.85 50.2-16.13 49.84-17.4 48.77-17.4 47.7-17.4 46.64-16.8L46.64-16.8 46.64-6.45Q47.59-6 48.47-6 49.34-6 49.72-6.33 50.09-6.65 50.27-7.53ZM71.64-17.4L71.64-17.4Q70.34-17.4 69.94-16.53 69.54-15.65 69.54-13.85L69.54-13.85 73.89-13.85 73.89-15.05Q73.89-17.4 71.64-17.4ZM71.84-24.55L71.84-24.55Q76.99-24.55 79.22-22.08 81.44-19.6 81.44-15L81.44-15Q81.44-14.4 81.09-9.6L81.09-9.6 69.69-9.6Q69.69-5.85 73.14-5.85L73.14-5.85Q74.79-5.85 79.59-7L79.59-7 80.29-0.8Q76.09 0.5 71.89 0.5L71.89 0.5Q66.74 0.5 63.99-2.88 61.24-6.25 61.24-12.05L61.24-12.05Q61.24-24.55 71.84-24.55ZM107.39-31.05L115.29-31.05 112.49 0 102.19 0 99.49-13.75 99.09-13.75 96.84 0 86.49 0 83.24-31.05 91.44-31.05 92.74-14.6 93.24-14.6 95.34-31.05 103.69-31.05 105.99-14.6 106.49-14.6 107.39-31.05ZM135.84-17.7L135.84-17.7 135.59-7.35Q135.59-6.4 136.06-6.08 136.54-5.75 137.69-5.75L137.69-5.75 136.94 0.3Q134.04 0.5 133.74 0.5L133.74 0.5Q130.04 0.5 129.04-2.05L129.04-2.05 128.79-2.05Q126.94 0.5 123.09 0.5L123.09 0.5Q120.14 0.5 118.56-1.4 116.99-3.3 116.99-6.6L116.99-6.6Q116.99-10.75 119.56-12.35 122.14-13.95 127.69-14.45L127.69-14.45 127.69-15.65Q127.69-17.05 126.29-17.05L126.29-17.05Q123.89-17.05 118.79-15.6L118.79-15.6 117.54-22.9Q123.94-24.55 128.19-24.55 132.44-24.55 134.14-22.9 135.84-21.25 135.84-17.7ZM126.19-5.35L126.19-5.35Q128.04-5.35 128.04-7.3L128.04-7.3 128.04-9.75Q126.19-9.5 125.41-8.97 124.64-8.45 124.64-7.2L124.64-7.2Q124.64-5.35 126.19-5.35ZM151.99-23.95L160.14-23.95 155.04 0 143.24 0 138.09-23.95 146.89-23.95 149.04-8.6 149.69-8.6 151.99-23.95ZM171.63-17.4L171.63-17.4Q170.33-17.4 169.93-16.53 169.53-15.65 169.53-13.85L169.53-13.85 173.88-13.85 173.88-15.05Q173.88-17.4 171.63-17.4ZM171.83-24.55L171.83-24.55Q176.98-24.55 179.21-22.08 181.43-19.6 181.43-15L181.43-15Q181.43-14.4 181.08-9.6L181.08-9.6 169.68-9.6Q169.68-5.85 173.13-5.85L173.13-5.85Q174.78-5.85 179.58-7L179.58-7 180.28-0.8Q176.08 0.5 171.88 0.5L171.88 0.5Q166.73 0.5 163.98-2.88 161.23-6.25 161.23-12.05L161.23-12.05Q161.23-24.55 171.83-24.55Z" opacity="1" transform="matrix(1,0,0,1,0,0)" fill="white" class="wordmark-text-0" id="SvgjsPath1695"></path></svg></g></svg></g></svg></g></svg></g><g><svg viewBox="0 0 244.43136 244.43136" height="244.43136" width="244.43136"><g><svg viewBox="0 0 244.43136 244.43136" height="244.43136" width="244.43136"><g transform="matrix(1,0,0,1,64.60265593644993,73.88412543195307)"><svg viewBox="0 0 115.22604812710016 96.66310913609387" height="96.66310913609387" width="115.22604812710016"><g><svg xmlns="http://www.w3.org/2000/svg" xmlns:xlink="http://www.w3.org/1999/xlink" version="1.0" x="0" y="0" viewBox="24.5 28.700000000000006 50.89999999999999 42.7" enable-background="new 0 0 100 100" xml:space="preserve" height="96.66310913609387" width="115.22604812710016" class="icon-cg-0" data-fill-palette-color="accent" id="SvgjsSvg1694"><path d="M73.4 71.4H30.5c-0.9 0-1.6-0.7-1.6-1.6s0.7-1.6 1.6-1.6h42.9c0.9 0 1.6 0.7 1.6 1.6S74.3 71.4 73.4 71.4z" fill="black"></path><path d="M29.9 71.4c-0.5 0-1.1-0.3-1.4-0.8-2.6-4.3-4-9.2-4-14.2 0-15.3 12.5-27.7 27.8-27.7 3.2 0 6.4 0.5 9.4 1.6 0.8 0.3 1.3 1.2 1 2.1-0.3 0.8-1.2 1.3-2.1 1-2.6-0.9-5.4-1.4-8.3-1.4-13.6 0-24.6 11-24.6 24.5 0 4.4 1.2 8.8 3.5 12.6 0.5 0.8 0.2 1.8-0.5 2.2C30.5 71.3 30.2 71.4 29.9 71.4z" fill="black"></path><path d="M57.3 51.9c-3.2 0-6.3-1.7-8.3-4.7-0.5-0.7-0.3-1.7 0.5-2.2 0.7-0.5 1.7-0.3 2.2 0.5 1.3 2 3.4 3.2 5.6 3.2 3.9 0 7-3.7 7-8.2 0-3.4-0.1-5.2-3.2-6.9-0.8-0.4-1.1-1.4-0.6-2.2 0.4-0.8 1.4-1.1 2.2-0.6 4.9 2.7 4.9 6.4 4.9 9.7C67.6 46.7 63 51.9 57.3 51.9z" fill="black"></path><path d="M50.7 48.2c-0.9 0-1.6-0.7-1.6-1.6s0.7-1.6 1.6-1.6c2.3 0 4.2-1.5 4.2-3.4 0-1.9-1.9-3.4-4.2-3.4-0.9 0-1.6-0.7-1.6-1.6s0.7-1.6 1.6-1.6c4.1 0 7.4 3 7.4 6.6C58.1 45.2 54.7 48.2 50.7 48.2z" fill="black"></path><path d="M73.8 63.7H55.5c-8.8 0-16-7.6-16-16.9 0-0.9 0.7-1.6 1.6-1.6s1.6 0.7 1.6 1.6c0 7.5 5.7 13.7 12.8 13.7h18.3c0.9 0 1.6 0.7 1.6 1.6S74.7 63.7 73.8 63.7z" fill="black"></path><path d="M41.1 49.5c-0.9 0-1.6-0.7-1.6-1.6C39.5 39.7 43.7 35 51 35c0.9 0 1.6 0.7 1.6 1.6s-0.7 1.6-1.6 1.6c-5.5 0-8.3 3.2-8.3 9.6C42.7 48.8 42 49.5 41.1 49.5z" fill="black"></path></svg></g></svg></g><g id="SvgjsG1693"><path d="M5.518 81.473l1.955-5.699 18.545 10.079-2.869 8.364-20.905-3.199 2.055-5.992 13.487 2.715 0.185-0.539z" fill="black"></path><path d="M29.684 48.316l12.595 9.682-3.368 4.381-12.594-9.682zM25.579 51.575c-0.605 0.131-1.264-0.077-1.977-0.625-0.708-0.544-1.084-1.131-1.128-1.762-0.054-0.629 0.246-1.369 0.899-2.22 0.654-0.85 1.291-1.33 1.914-1.44 0.621-0.119 1.283 0.091 1.985 0.631 0.697 0.536 1.065 1.117 1.104 1.744 0.043 0.621-0.262 1.357-0.915 2.207-0.654 0.85-1.281 1.338-1.882 1.465z" fill="black"></path><path d="M57.538 23.091c1.741-1.171 3.239-1.444 4.494-0.819 1.251 0.619 2.704 2.159 4.358 4.619 1.65 2.454 2.563 4.469 2.739 6.044 0.174 1.584-0.628 2.975-2.408 4.172v0c-1.393 0.937-2.609 1.229-3.649 0.876v0l-0.116 0.078 0.267 0.988-3.64 2.448-11.986-17.827 4.644-3.122 3.238 4.818 0.108-0.073c0.339-0.822 0.989-1.556 1.951-2.202zM63.393 32.855c-0.149-0.365-0.319-0.713-0.509-1.042-0.195-0.326-0.59-0.932-1.185-1.816-0.591-0.879-1.113-1.511-1.564-1.898-0.443-0.384-0.864-0.443-1.262-0.175-0.398 0.268-0.719 0.644-0.963 1.129v0l3.869 5.754c0.469-0.067 0.867-0.209 1.193-0.429 0.321-0.216 0.512-0.432 0.574-0.65 0.056-0.215 0.005-0.505-0.153-0.873z" fill="black"></path><path d="M96.358 11.866v0c-0.564 0.135-0.887 0.414-0.97 0.838-0.085 0.418-0.034 1.018 0.153 1.803v0l2.837-0.678-0.185-0.778c-0.245-1.024-0.856-1.419-1.835-1.185zM95.38 7.169v0c2.235-0.534 3.964-0.379 5.186 0.467 1.229 0.843 2.082 2.266 2.56 4.267v0c0.062 0.259 0.264 1.45 0.608 3.574v0l-7.424 1.774c0.39 1.633 1.333 2.27 2.829 1.912v0c0.719-0.172 2.061-0.76 4.027-1.763v0l1.423 3.933c-1.691 1.007-3.449 1.728-5.277 2.165v0c-2.235 0.534-4.128 0.209-5.677-0.975-1.542-1.179-2.614-3.029-3.216-5.549v0c-1.299-5.435 0.355-8.703 4.961-9.805z" fill="black"></path><path d="M147.086 2.454l5.234 0.803-5.012 20.286-6.824-1.047-0.391-9.379-0.267-0.041-2.887 8.877-6.854-1.052 1.002-20.901 5.432 0.833-0.813 11.035 0.336 0.051 3.064-10.689 5.531 0.848-0.152 11.136 0.336 0.052z" fill="black"></path><path d="M186.929 28.41v0l-3.718 5.855c-0.22 0.365-0.276 0.666-0.169 0.901 0.111 0.23 0.386 0.477 0.825 0.741v0l-2.518 3.219c-1.156-0.586-1.793-0.915-1.913-0.987v0c-1.416-0.851-2.021-1.88-1.817-3.085v0l-0.145-0.088c-1.295 0.551-2.678 0.383-4.152-0.502v0c-1.13-0.68-1.776-1.565-1.935-2.656-0.169-1.089 0.127-2.267 0.889-3.534v0c0.954-1.587 2.109-2.389 3.463-2.406 1.353-0.026 3.15 0.507 5.393 1.598v0l0.417-0.694c0.323-0.537 0.216-0.966-0.321-1.288v0c-0.919-0.553-2.523-1.136-4.812-1.751v0l1.803-4.628c2.83 0.839 5.058 1.747 6.685 2.725 1.627 0.978 2.575 1.98 2.846 3.005 0.27 1.025-0.004 2.217-0.821 3.575zM177.127 32.169v0c0.708 0.426 1.287 0.264 1.736-0.483v0l0.844-1.404c-0.766-0.329-1.358-0.482-1.775-0.461-0.417 0.021-0.77 0.272-1.058 0.751v0c-0.426 0.708-0.342 1.24 0.253 1.597z" fill="black"></path><path d="M216.647 50.838l3.418 4.265-14.658 7.368-4.949-6.175 10.366-12.724 3.686 4.6-7.122 7.552 0.274 0.343z" fill="black"></path><path d="M231.437 87.626v0c-0.188-0.548-0.497-0.844-0.927-0.886-0.424-0.045-1.017 0.063-1.779 0.325v0l0.946 2.76 0.756-0.26c0.996-0.341 1.33-0.988 1.004-1.939zM236.019 86.203v0c0.745 2.174 0.756 3.909 0.032 5.207-0.722 1.304-2.056 2.289-4.004 2.957v0c-0.252 0.086-1.418 0.402-3.499 0.946v0l-2.475-7.221c-1.588 0.544-2.132 1.544-1.634 3v0c0.24 0.699 0.953 1.979 2.141 3.84v0l-3.78 1.792c-1.164-1.587-2.05-3.268-2.659-5.045v0c-0.745-2.174-0.603-4.089 0.428-5.745 1.026-1.648 2.765-2.891 5.216-3.732v0c5.286-1.812 8.697-0.479 10.234 4.001z" fill="black"></path><path d="M30.394 159.528l2.061 5.947-21.715 3.644-3.022-8.723 19.231-10.809 2.163 6.24-12.825 6.443 0.196 0.566z" fill="black"></path><path d="M42.583 191.197l-13.131 10.114-3.518-4.567 13.131-10.115zM40.392 186.175c0.036-0.641 0.423-1.246 1.162-1.816 0.739-0.569 1.431-0.795 2.075-0.678 0.649 0.122 1.315 0.627 1.998 1.513 0.683 0.887 0.999 1.657 0.947 2.31-0.047 0.659-0.438 1.271-1.171 1.836-0.728 0.561-1.414 0.778-2.058 0.652-0.634-0.125-1.293-0.631-1.976-1.518-0.683-0.887-1.008-1.653-0.977-2.299z" fill="black"></path><path d="M67.108 211.758c1.817 1.225 2.668 2.566 2.553 4.022-0.109 1.461-1.026 3.47-2.75 6.027-1.728 2.563-3.323 4.238-4.786 5.027-1.454 0.787-3.109 0.555-4.965-0.696v0c-1.453-0.979-2.216-2.04-2.289-3.182v0l-0.116-0.078-0.854 0.641-3.795-2.558 12.528-18.582 4.838 3.262-3.379 5.012 0.116 0.078c0.927 0.007 1.894 0.349 2.899 1.027zM59.967 221.259c0.293-0.292 0.558-0.596 0.795-0.911 0.245-0.316 0.677-0.933 1.295-1.85 0.618-0.917 1.024-1.668 1.217-2.252 0.203-0.586 0.097-1.019-0.317-1.298-0.42-0.283-0.909-0.444-1.469-0.484v0l-4.049 6.006c0.249 0.417 0.545 0.741 0.887 0.971 0.337 0.227 0.62 0.326 0.849 0.296 0.226-0.025 0.49-0.184 0.792-0.478z" fill="black"></path><path d="M97.92 229.952v0c-0.589-0.142-1.023-0.034-1.301 0.323-0.277 0.351-0.513 0.935-0.71 1.751v0l2.953 0.712 0.197-0.816c0.258-1.068-0.122-1.725-1.139-1.97zM99.227 225.128v0c2.331 0.562 3.867 1.525 4.607 2.889 0.74 1.364 0.859 3.088 0.356 5.173v0c-0.066 0.272-0.442 1.476-1.128 3.613v0l-7.751-1.869c-0.411 1.703 0.168 2.743 1.734 3.121v0c0.745 0.18 2.268 0.269 4.571 0.27v0l-0.541 4.33c-2.046 0.13-4.021-0.034-5.924-0.493v0c-2.331-0.562-3.937-1.758-4.819-3.588-0.875-1.828-0.995-4.056-0.361-6.685v0c1.366-5.666 4.451-7.919 9.256-6.761z" fill="black"></path><path d="M143.234 220.773l5.463-0.83 1.322 21.759-7.122 1.081-3.309-9.219-0.277 0.042-0.108 9.738-7.161 1.087-5.501-21.124 5.67-0.861 2.624 11.233 0.346-0.052-0.274-11.59 5.769-0.876 3.316 11.128 0.346-0.052z" fill="black"></path><path d="M183.028 213.873v0l3.581 6.299c0.226 0.377 0.473 0.575 0.74 0.592 0.267 0.018 0.632-0.111 1.095-0.389v0l1.721 3.897c-1.111 0.776-1.727 1.199-1.847 1.271v0c-1.479 0.888-2.724 0.943-3.734 0.167v0l-0.146 0.087c-0.133 1.462-0.967 2.654-2.503 3.576v0c-1.182 0.709-2.315 0.873-3.4 0.49-1.084-0.383-2.022-1.234-2.813-2.553v0c-0.994-1.656-1.169-3.113-0.525-4.37 0.644-1.257 2.017-2.651 4.12-4.184v0l-0.432-0.719c-0.336-0.56-0.784-0.672-1.343-0.336v0c-0.96 0.576-2.286 1.764-3.979 3.564v0l-3.381-3.926c2.165-2.192 4.098-3.799 5.8-4.82 1.696-1.018 3.081-1.402 4.155-1.153 1.077 0.255 2.041 1.09 2.891 2.507zM181.692 224.753v0c0.737-0.442 0.87-1.054 0.4-1.836v0l-0.879-1.465c-0.679 0.539-1.109 1.007-1.29 1.403-0.187 0.4-0.132 0.848 0.166 1.345v0c0.446 0.743 0.98 0.927 1.603 0.553z" fill="black"></path><path d="M203.778 188.079l3.57-4.437 10.811 13.275-5.173 6.431-15.301-7.694 3.858-4.796 9.3 5.559 0.288-0.358z" fill="black"></path><path d="M224.299 159.335v0c-0.198 0.573-0.133 1.015 0.196 1.326 0.323 0.309 0.881 0.601 1.674 0.876v0l0.994-2.87-0.793-0.275c-1.039-0.36-1.729-0.045-2.071 0.943zM219.624 157.568v0c0.785-2.266 1.892-3.701 3.32-4.306 1.429-0.605 3.157-0.556 5.184 0.146v0c0.264 0.092 1.427 0.582 3.487 1.472v0l-2.61 7.534c1.655 0.573 2.747 0.098 3.275-1.425v0c0.251-0.724 0.487-2.231 0.71-4.523v0l4.257 0.957c-0.068 2.049-0.423 3.998-1.063 5.848v0c-0.785 2.266-2.13 3.749-4.036 4.45-1.904 0.694-4.134 0.599-6.689-0.287v0c-5.507-1.907-7.452-5.196-5.835-9.866z" fill="black"></path><path d="M2.217 124.551c0-4.58 3.713-8.294 8.294-8.294 4.58 0 8.294 3.713 8.293 8.294 0 4.58-3.713 8.294-8.293 8.294-4.58 0-8.294-3.713-8.294-8.294z" fill="black"></path><path d="M225.627 124.551c0-4.58 3.713-8.294 8.294-8.294 4.58 0 8.294 3.713 8.293 8.294 0 4.58-3.713 8.294-8.293 8.294-4.58 0-8.294-3.713-8.294-8.294z" fill="black"></path></g><g id="SvgjsG1692"></g></svg></g></svg></g></svg></g><defs><mask></mask></defs></svg><rect width="395.52" height="141.66923070792058" fill="black" stroke="none" visibility="hidden"></rect></g></mask><linearGradient x1="0" x2="1" y1="0.548" y2="0.55" id="3194d70a-4dca-4597-9749-c4de3d9b592c"><stop stop-color="#ff6cab" offset="0"></stop><stop stop-color="#7366ff" offset="1"></stop></linearGradient><rect width="395.52" height="141.66923070792058" fill="url(#3194d70a-4dca-4597-9749-c4de3d9b592c)" mask="url(#19a3a8a9-c16f-4a4f-b8bb-ccd07c26c00b)" data-fill-palette-color="primary"></rect><mask id="e39e673a-09b1-4743-abfc-4dca37dfa268"><g id="SvgjsG1711"><svg viewBox="0 0 395.52 141.66923070792058" height="141.66923070792058" width="395.52"><g><svg viewBox="0 0 682.4170006719381 244.43136" height="141.66923070792058" width="395.52"><g transform="matrix(1,0,0,1,286.8970006719381,86.2394344926735)"><svg viewBox="0 0 395.52000000000004 71.95249101465302" height="71.95249101465302" width="395.52000000000004"><g id="SvgjsG1710"><svg viewBox="0 0 395.52000000000004 71.95249101465302" height="71.95249101465302" width="395.52000000000004" id="SvgjsSvg1709"><g><svg viewBox="0 0 395.52000000000004 71.95249101465302" height="71.95249101465302" width="395.52000000000004"><g transform="matrix(1,0,0,1,0,0)"><svg width="395.52000000000004" viewBox="0.6 -32.4 180.83 32.9" height="71.95249101465302" data-palette-color="url(#3194d70a-4dca-4597-9749-c4de3d9b592c)"></svg></g></svg></g></svg></g></svg></g><g><svg viewBox="0 0 244.43136 244.43136" height="244.43136" width="244.43136"><g><svg viewBox="0 0 244.43136 244.43136" height="244.43136" width="244.43136"><g transform="matrix(1,0,0,1,64.60265593644993,73.88412543195307)"><svg viewBox="0 0 115.22604812710016 96.66310913609387" height="96.66310913609387" width="115.22604812710016"><g><svg xmlns="http://www.w3.org/2000/svg" xmlns:xlink="http://www.w3.org/1999/xlink" version="1.0" x="0" y="0" viewBox="24.5 28.700000000000006 50.89999999999999 42.7" enable-background="new 0 0 100 100" xml:space="preserve" height="96.66310913609387" width="115.22604812710016" class="icon-cg-0" data-fill-palette-color="accent" id="SvgjsSvg1708"><path d="M73.4 71.4H30.5c-0.9 0-1.6-0.7-1.6-1.6s0.7-1.6 1.6-1.6h42.9c0.9 0 1.6 0.7 1.6 1.6S74.3 71.4 73.4 71.4z" fill="white"></path><path d="M29.9 71.4c-0.5 0-1.1-0.3-1.4-0.8-2.6-4.3-4-9.2-4-14.2 0-15.3 12.5-27.7 27.8-27.7 3.2 0 6.4 0.5 9.4 1.6 0.8 0.3 1.3 1.2 1 2.1-0.3 0.8-1.2 1.3-2.1 1-2.6-0.9-5.4-1.4-8.3-1.4-13.6 0-24.6 11-24.6 24.5 0 4.4 1.2 8.8 3.5 12.6 0.5 0.8 0.2 1.8-0.5 2.2C30.5 71.3 30.2 71.4 29.9 71.4z" fill="white"></path><path d="M57.3 51.9c-3.2 0-6.3-1.7-8.3-4.7-0.5-0.7-0.3-1.7 0.5-2.2 0.7-0.5 1.7-0.3 2.2 0.5 1.3 2 3.4 3.2 5.6 3.2 3.9 0 7-3.7 7-8.2 0-3.4-0.1-5.2-3.2-6.9-0.8-0.4-1.1-1.4-0.6-2.2 0.4-0.8 1.4-1.1 2.2-0.6 4.9 2.7 4.9 6.4 4.9 9.7C67.6 46.7 63 51.9 57.3 51.9z" fill="white"></path><path d="M50.7 48.2c-0.9 0-1.6-0.7-1.6-1.6s0.7-1.6 1.6-1.6c2.3 0 4.2-1.5 4.2-3.4 0-1.9-1.9-3.4-4.2-3.4-0.9 0-1.6-0.7-1.6-1.6s0.7-1.6 1.6-1.6c4.1 0 7.4 3 7.4 6.6C58.1 45.2 54.7 48.2 50.7 48.2z" fill="white"></path><path d="M73.8 63.7H55.5c-8.8 0-16-7.6-16-16.9 0-0.9 0.7-1.6 1.6-1.6s1.6 0.7 1.6 1.6c0 7.5 5.7 13.7 12.8 13.7h18.3c0.9 0 1.6 0.7 1.6 1.6S74.7 63.7 73.8 63.7z" fill="white"></path><path d="M41.1 49.5c-0.9 0-1.6-0.7-1.6-1.6C39.5 39.7 43.7 35 51 35c0.9 0 1.6 0.7 1.6 1.6s-0.7 1.6-1.6 1.6c-5.5 0-8.3 3.2-8.3 9.6C42.7 48.8 42 49.5 41.1 49.5z" fill="white"></path></svg></g></svg></g><g id="SvgjsG1707"><path d="M5.518 81.473l1.955-5.699 18.545 10.079-2.869 8.364-20.905-3.199 2.055-5.992 13.487 2.715 0.185-0.539z" fill="white"></path><path d="M29.684 48.316l12.595 9.682-3.368 4.381-12.594-9.682zM25.579 51.575c-0.605 0.131-1.264-0.077-1.977-0.625-0.708-0.544-1.084-1.131-1.128-1.762-0.054-0.629 0.246-1.369 0.899-2.22 0.654-0.85 1.291-1.33 1.914-1.44 0.621-0.119 1.283 0.091 1.985 0.631 0.697 0.536 1.065 1.117 1.104 1.744 0.043 0.621-0.262 1.357-0.915 2.207-0.654 0.85-1.281 1.338-1.882 1.465z" fill="white"></path><path d="M57.538 23.091c1.741-1.171 3.239-1.444 4.494-0.819 1.251 0.619 2.704 2.159 4.358 4.619 1.65 2.454 2.563 4.469 2.739 6.044 0.174 1.584-0.628 2.975-2.408 4.172v0c-1.393 0.937-2.609 1.229-3.649 0.876v0l-0.116 0.078 0.267 0.988-3.64 2.448-11.986-17.827 4.644-3.122 3.238 4.818 0.108-0.073c0.339-0.822 0.989-1.556 1.951-2.202zM63.393 32.855c-0.149-0.365-0.319-0.713-0.509-1.042-0.195-0.326-0.59-0.932-1.185-1.816-0.591-0.879-1.113-1.511-1.564-1.898-0.443-0.384-0.864-0.443-1.262-0.175-0.398 0.268-0.719 0.644-0.963 1.129v0l3.869 5.754c0.469-0.067 0.867-0.209 1.193-0.429 0.321-0.216 0.512-0.432 0.574-0.65 0.056-0.215 0.005-0.505-0.153-0.873z" fill="white"></path><path d="M96.358 11.866v0c-0.564 0.135-0.887 0.414-0.97 0.838-0.085 0.418-0.034 1.018 0.153 1.803v0l2.837-0.678-0.185-0.778c-0.245-1.024-0.856-1.419-1.835-1.185zM95.38 7.169v0c2.235-0.534 3.964-0.379 5.186 0.467 1.229 0.843 2.082 2.266 2.56 4.267v0c0.062 0.259 0.264 1.45 0.608 3.574v0l-7.424 1.774c0.39 1.633 1.333 2.27 2.829 1.912v0c0.719-0.172 2.061-0.76 4.027-1.763v0l1.423 3.933c-1.691 1.007-3.449 1.728-5.277 2.165v0c-2.235 0.534-4.128 0.209-5.677-0.975-1.542-1.179-2.614-3.029-3.216-5.549v0c-1.299-5.435 0.355-8.703 4.961-9.805z" fill="white"></path><path d="M147.086 2.454l5.234 0.803-5.012 20.286-6.824-1.047-0.391-9.379-0.267-0.041-2.887 8.877-6.854-1.052 1.002-20.901 5.432 0.833-0.813 11.035 0.336 0.051 3.064-10.689 5.531 0.848-0.152 11.136 0.336 0.052z" fill="white"></path><path d="M186.929 28.41v0l-3.718 5.855c-0.22 0.365-0.276 0.666-0.169 0.901 0.111 0.23 0.386 0.477 0.825 0.741v0l-2.518 3.219c-1.156-0.586-1.793-0.915-1.913-0.987v0c-1.416-0.851-2.021-1.88-1.817-3.085v0l-0.145-0.088c-1.295 0.551-2.678 0.383-4.152-0.502v0c-1.13-0.68-1.776-1.565-1.935-2.656-0.169-1.089 0.127-2.267 0.889-3.534v0c0.954-1.587 2.109-2.389 3.463-2.406 1.353-0.026 3.15 0.507 5.393 1.598v0l0.417-0.694c0.323-0.537 0.216-0.966-0.321-1.288v0c-0.919-0.553-2.523-1.136-4.812-1.751v0l1.803-4.628c2.83 0.839 5.058 1.747 6.685 2.725 1.627 0.978 2.575 1.98 2.846 3.005 0.27 1.025-0.004 2.217-0.821 3.575zM177.127 32.169v0c0.708 0.426 1.287 0.264 1.736-0.483v0l0.844-1.404c-0.766-0.329-1.358-0.482-1.775-0.461-0.417 0.021-0.77 0.272-1.058 0.751v0c-0.426 0.708-0.342 1.24 0.253 1.597z" fill="white"></path><path d="M216.647 50.838l3.418 4.265-14.658 7.368-4.949-6.175 10.366-12.724 3.686 4.6-7.122 7.552 0.274 0.343z" fill="white"></path><path d="M231.437 87.626v0c-0.188-0.548-0.497-0.844-0.927-0.886-0.424-0.045-1.017 0.063-1.779 0.325v0l0.946 2.76 0.756-0.26c0.996-0.341 1.33-0.988 1.004-1.939zM236.019 86.203v0c0.745 2.174 0.756 3.909 0.032 5.207-0.722 1.304-2.056 2.289-4.004 2.957v0c-0.252 0.086-1.418 0.402-3.499 0.946v0l-2.475-7.221c-1.588 0.544-2.132 1.544-1.634 3v0c0.24 0.699 0.953 1.979 2.141 3.84v0l-3.78 1.792c-1.164-1.587-2.05-3.268-2.659-5.045v0c-0.745-2.174-0.603-4.089 0.428-5.745 1.026-1.648 2.765-2.891 5.216-3.732v0c5.286-1.812 8.697-0.479 10.234 4.001z" fill="white"></path><path d="M30.394 159.528l2.061 5.947-21.715 3.644-3.022-8.723 19.231-10.809 2.163 6.24-12.825 6.443 0.196 0.566z" fill="white"></path><path d="M42.583 191.197l-13.131 10.114-3.518-4.567 13.131-10.115zM40.392 186.175c0.036-0.641 0.423-1.246 1.162-1.816 0.739-0.569 1.431-0.795 2.075-0.678 0.649 0.122 1.315 0.627 1.998 1.513 0.683 0.887 0.999 1.657 0.947 2.31-0.047 0.659-0.438 1.271-1.171 1.836-0.728 0.561-1.414 0.778-2.058 0.652-0.634-0.125-1.293-0.631-1.976-1.518-0.683-0.887-1.008-1.653-0.977-2.299z" fill="white"></path><path d="M67.108 211.758c1.817 1.225 2.668 2.566 2.553 4.022-0.109 1.461-1.026 3.47-2.75 6.027-1.728 2.563-3.323 4.238-4.786 5.027-1.454 0.787-3.109 0.555-4.965-0.696v0c-1.453-0.979-2.216-2.04-2.289-3.182v0l-0.116-0.078-0.854 0.641-3.795-2.558 12.528-18.582 4.838 3.262-3.379 5.012 0.116 0.078c0.927 0.007 1.894 0.349 2.899 1.027zM59.967 221.259c0.293-0.292 0.558-0.596 0.795-0.911 0.245-0.316 0.677-0.933 1.295-1.85 0.618-0.917 1.024-1.668 1.217-2.252 0.203-0.586 0.097-1.019-0.317-1.298-0.42-0.283-0.909-0.444-1.469-0.484v0l-4.049 6.006c0.249 0.417 0.545 0.741 0.887 0.971 0.337 0.227 0.62 0.326 0.849 0.296 0.226-0.025 0.49-0.184 0.792-0.478z" fill="white"></path><path d="M97.92 229.952v0c-0.589-0.142-1.023-0.034-1.301 0.323-0.277 0.351-0.513 0.935-0.71 1.751v0l2.953 0.712 0.197-0.816c0.258-1.068-0.122-1.725-1.139-1.97zM99.227 225.128v0c2.331 0.562 3.867 1.525 4.607 2.889 0.74 1.364 0.859 3.088 0.356 5.173v0c-0.066 0.272-0.442 1.476-1.128 3.613v0l-7.751-1.869c-0.411 1.703 0.168 2.743 1.734 3.121v0c0.745 0.18 2.268 0.269 4.571 0.27v0l-0.541 4.33c-2.046 0.13-4.021-0.034-5.924-0.493v0c-2.331-0.562-3.937-1.758-4.819-3.588-0.875-1.828-0.995-4.056-0.361-6.685v0c1.366-5.666 4.451-7.919 9.256-6.761z" fill="white"></path><path d="M143.234 220.773l5.463-0.83 1.322 21.759-7.122 1.081-3.309-9.219-0.277 0.042-0.108 9.738-7.161 1.087-5.501-21.124 5.67-0.861 2.624 11.233 0.346-0.052-0.274-11.59 5.769-0.876 3.316 11.128 0.346-0.052z" fill="white"></path><path d="M183.028 213.873v0l3.581 6.299c0.226 0.377 0.473 0.575 0.74 0.592 0.267 0.018 0.632-0.111 1.095-0.389v0l1.721 3.897c-1.111 0.776-1.727 1.199-1.847 1.271v0c-1.479 0.888-2.724 0.943-3.734 0.167v0l-0.146 0.087c-0.133 1.462-0.967 2.654-2.503 3.576v0c-1.182 0.709-2.315 0.873-3.4 0.49-1.084-0.383-2.022-1.234-2.813-2.553v0c-0.994-1.656-1.169-3.113-0.525-4.37 0.644-1.257 2.017-2.651 4.12-4.184v0l-0.432-0.719c-0.336-0.56-0.784-0.672-1.343-0.336v0c-0.96 0.576-2.286 1.764-3.979 3.564v0l-3.381-3.926c2.165-2.192 4.098-3.799 5.8-4.82 1.696-1.018 3.081-1.402 4.155-1.153 1.077 0.255 2.041 1.09 2.891 2.507zM181.692 224.753v0c0.737-0.442 0.87-1.054 0.4-1.836v0l-0.879-1.465c-0.679 0.539-1.109 1.007-1.29 1.403-0.187 0.4-0.132 0.848 0.166 1.345v0c0.446 0.743 0.98 0.927 1.603 0.553z" fill="white"></path><path d="M203.778 188.079l3.57-4.437 10.811 13.275-5.173 6.431-15.301-7.694 3.858-4.796 9.3 5.559 0.288-0.358z" fill="white"></path><path d="M224.299 159.335v0c-0.198 0.573-0.133 1.015 0.196 1.326 0.323 0.309 0.881 0.601 1.674 0.876v0l0.994-2.87-0.793-0.275c-1.039-0.36-1.729-0.045-2.071 0.943zM219.624 157.568v0c0.785-2.266 1.892-3.701 3.32-4.306 1.429-0.605 3.157-0.556 5.184 0.146v0c0.264 0.092 1.427 0.582 3.487 1.472v0l-2.61 7.534c1.655 0.573 2.747 0.098 3.275-1.425v0c0.251-0.724 0.487-2.231 0.71-4.523v0l4.257 0.957c-0.068 2.049-0.423 3.998-1.063 5.848v0c-0.785 2.266-2.13 3.749-4.036 4.45-1.904 0.694-4.134 0.599-6.689-0.287v0c-5.507-1.907-7.452-5.196-5.835-9.866z" fill="white"></path><path d="M2.217 124.551c0-4.58 3.713-8.294 8.294-8.294 4.58 0 8.294 3.713 8.293 8.294 0 4.58-3.713 8.294-8.293 8.294-4.58 0-8.294-3.713-8.294-8.294z" fill="white"></path><path d="M225.627 124.551c0-4.58 3.713-8.294 8.294-8.294 4.58 0 8.294 3.713 8.293 8.294 0 4.58-3.713 8.294-8.293 8.294-4.58 0-8.294-3.713-8.294-8.294z" fill="white"></path></g><g id="SvgjsG1706"></g></svg></g></svg></g></svg></g><defs><mask></mask></defs><mask><g id="SvgjsG1705"><svg viewBox="0 0 395.52 141.66923070792058" height="141.66923070792058" width="395.52"><g><svg viewBox="0 0 682.4170006719381 244.43136" height="141.66923070792058" width="395.52"><g transform="matrix(1,0,0,1,286.8970006719381,86.2394344926735)"><svg viewBox="0 0 395.52000000000004 71.95249101465302" height="71.95249101465302" width="395.52000000000004"><g id="SvgjsG1704"><svg viewBox="0 0 395.52000000000004 71.95249101465302" height="71.95249101465302" width="395.52000000000004" id="SvgjsSvg1703"><g><svg viewBox="0 0 395.52000000000004 71.95249101465302" height="71.95249101465302" width="395.52000000000004"><g transform="matrix(1,0,0,1,0,0)"><svg width="395.52000000000004" viewBox="0.6 -32.4 180.83 32.9" height="71.95249101465302" data-palette-color="url(#3194d70a-4dca-4597-9749-c4de3d9b592c)"><path d="M15.65-31.05L24.65-31.05 19.4 0 6.2 0 0.6-31.05 10.05-31.05 12.75-10.7 13.6-10.7 15.65-31.05ZM35.2-23.7L35.2 0 26.95 0 26.95-23.7 35.2-23.7ZM27.6-25.6Q26.55-26.5 26.55-28.5 26.55-30.5 27.6-31.45 28.65-32.4 31.05-32.4 33.45-32.4 34.5-31.45 35.55-30.5 35.55-28.53 35.55-26.55 34.5-25.63 33.45-24.7 31.05-24.7 28.65-24.7 27.6-25.6ZM51.14-24.5Q55.84-24.5 57.39-21.78 58.95-19.05 58.95-12.43 58.95-5.8 57.3-2.65 55.64 0.5 50.84 0.5L50.84 0.5Q47.09 0.5 45.59-1.45L45.59-1.45 45.39-1.45 44.89 0 38.34 0 38.34-32.05 46.7-32.05 46.7-23.4 46.89-23.4Q48.55-24.5 51.14-24.5L51.14-24.5ZM50.27-7.53Q50.45-8.4 50.49-9.25 50.55-10.1 50.55-12.48 50.55-14.85 50.2-16.13 49.84-17.4 48.77-17.4 47.7-17.4 46.64-16.8L46.64-16.8 46.64-6.45Q47.59-6 48.47-6 49.34-6 49.72-6.33 50.09-6.65 50.27-7.53ZM71.64-17.4L71.64-17.4Q70.34-17.4 69.94-16.53 69.54-15.65 69.54-13.85L69.54-13.85 73.89-13.85 73.89-15.05Q73.89-17.4 71.64-17.4ZM71.84-24.55L71.84-24.55Q76.99-24.55 79.22-22.08 81.44-19.6 81.44-15L81.44-15Q81.44-14.4 81.09-9.6L81.09-9.6 69.69-9.6Q69.69-5.85 73.14-5.85L73.14-5.85Q74.79-5.85 79.59-7L79.59-7 80.29-0.8Q76.09 0.5 71.89 0.5L71.89 0.5Q66.74 0.5 63.99-2.88 61.24-6.25 61.24-12.05L61.24-12.05Q61.24-24.55 71.84-24.55ZM107.39-31.05L115.29-31.05 112.49 0 102.19 0 99.49-13.75 99.09-13.75 96.84 0 86.49 0 83.24-31.05 91.44-31.05 92.74-14.6 93.24-14.6 95.34-31.05 103.69-31.05 105.99-14.6 106.49-14.6 107.39-31.05ZM135.84-17.7L135.84-17.7 135.59-7.35Q135.59-6.4 136.06-6.08 136.54-5.75 137.69-5.75L137.69-5.75 136.94 0.3Q134.04 0.5 133.74 0.5L133.74 0.5Q130.04 0.5 129.04-2.05L129.04-2.05 128.79-2.05Q126.94 0.5 123.09 0.5L123.09 0.5Q120.14 0.5 118.56-1.4 116.99-3.3 116.99-6.6L116.99-6.6Q116.99-10.75 119.56-12.35 122.14-13.95 127.69-14.45L127.69-14.45 127.69-15.65Q127.69-17.05 126.29-17.05L126.29-17.05Q123.89-17.05 118.79-15.6L118.79-15.6 117.54-22.9Q123.94-24.55 128.19-24.55 132.44-24.55 134.14-22.9 135.84-21.25 135.84-17.7ZM126.19-5.35L126.19-5.35Q128.04-5.35 128.04-7.3L128.04-7.3 128.04-9.75Q126.19-9.5 125.41-8.97 124.64-8.45 124.64-7.2L124.64-7.2Q124.64-5.35 126.19-5.35ZM151.99-23.95L160.14-23.95 155.04 0 143.24 0 138.09-23.95 146.89-23.95 149.04-8.6 149.69-8.6 151.99-23.95ZM171.63-17.4L171.63-17.4Q170.33-17.4 169.93-16.53 169.53-15.65 169.53-13.85L169.53-13.85 173.88-13.85 173.88-15.05Q173.88-17.4 171.63-17.4ZM171.83-24.55L171.83-24.55Q176.98-24.55 179.21-22.08 181.43-19.6 181.43-15L181.43-15Q181.43-14.4 181.08-9.6L181.08-9.6 169.68-9.6Q169.68-5.85 173.13-5.85L173.13-5.85Q174.78-5.85 179.58-7L179.58-7 180.28-0.8Q176.08 0.5 171.88 0.5L171.88 0.5Q166.73 0.5 163.98-2.88 161.23-6.25 161.23-12.05L161.23-12.05Q161.23-24.55 171.83-24.55Z" opacity="1" transform="matrix(1,0,0,1,0,0)" fill="black" class="wordmark-text-0" id="SvgjsPath1702"></path></svg></g></svg></g></svg></g></svg></g><g><svg viewBox="0 0 244.43136 244.43136" height="244.43136" width="244.43136"><g><svg viewBox="0 0 244.43136 244.43136" height="244.43136" width="244.43136"><g transform="matrix(1,0,0,1,64.60265593644993,73.88412543195307)"><svg viewBox="0 0 115.22604812710016 96.66310913609387" height="96.66310913609387" width="115.22604812710016"><g><svg xmlns="http://www.w3.org/2000/svg" xmlns:xlink="http://www.w3.org/1999/xlink" version="1.0" x="0" y="0" viewBox="24.5 28.700000000000006 50.89999999999999 42.7" enable-background="new 0 0 100 100" xml:space="preserve" height="96.66310913609387" width="115.22604812710016" class="icon-cg-0" data-fill-palette-color="accent" id="SvgjsSvg1701"><path d="M73.4 71.4H30.5c-0.9 0-1.6-0.7-1.6-1.6s0.7-1.6 1.6-1.6h42.9c0.9 0 1.6 0.7 1.6 1.6S74.3 71.4 73.4 71.4z" fill="black"></path><path d="M29.9 71.4c-0.5 0-1.1-0.3-1.4-0.8-2.6-4.3-4-9.2-4-14.2 0-15.3 12.5-27.7 27.8-27.7 3.2 0 6.4 0.5 9.4 1.6 0.8 0.3 1.3 1.2 1 2.1-0.3 0.8-1.2 1.3-2.1 1-2.6-0.9-5.4-1.4-8.3-1.4-13.6 0-24.6 11-24.6 24.5 0 4.4 1.2 8.8 3.5 12.6 0.5 0.8 0.2 1.8-0.5 2.2C30.5 71.3 30.2 71.4 29.9 71.4z" fill="black"></path><path d="M57.3 51.9c-3.2 0-6.3-1.7-8.3-4.7-0.5-0.7-0.3-1.7 0.5-2.2 0.7-0.5 1.7-0.3 2.2 0.5 1.3 2 3.4 3.2 5.6 3.2 3.9 0 7-3.7 7-8.2 0-3.4-0.1-5.2-3.2-6.9-0.8-0.4-1.1-1.4-0.6-2.2 0.4-0.8 1.4-1.1 2.2-0.6 4.9 2.7 4.9 6.4 4.9 9.7C67.6 46.7 63 51.9 57.3 51.9z" fill="black"></path><path d="M50.7 48.2c-0.9 0-1.6-0.7-1.6-1.6s0.7-1.6 1.6-1.6c2.3 0 4.2-1.5 4.2-3.4 0-1.9-1.9-3.4-4.2-3.4-0.9 0-1.6-0.7-1.6-1.6s0.7-1.6 1.6-1.6c4.1 0 7.4 3 7.4 6.6C58.1 45.2 54.7 48.2 50.7 48.2z" fill="black"></path><path d="M73.8 63.7H55.5c-8.8 0-16-7.6-16-16.9 0-0.9 0.7-1.6 1.6-1.6s1.6 0.7 1.6 1.6c0 7.5 5.7 13.7 12.8 13.7h18.3c0.9 0 1.6 0.7 1.6 1.6S74.7 63.7 73.8 63.7z" fill="black"></path><path d="M41.1 49.5c-0.9 0-1.6-0.7-1.6-1.6C39.5 39.7 43.7 35 51 35c0.9 0 1.6 0.7 1.6 1.6s-0.7 1.6-1.6 1.6c-5.5 0-8.3 3.2-8.3 9.6C42.7 48.8 42 49.5 41.1 49.5z" fill="black"></path></svg></g></svg></g><g id="SvgjsG1700"><path d="M5.518 81.473l1.955-5.699 18.545 10.079-2.869 8.364-20.905-3.199 2.055-5.992 13.487 2.715 0.185-0.539z" fill="black"></path><path d="M29.684 48.316l12.595 9.682-3.368 4.381-12.594-9.682zM25.579 51.575c-0.605 0.131-1.264-0.077-1.977-0.625-0.708-0.544-1.084-1.131-1.128-1.762-0.054-0.629 0.246-1.369 0.899-2.22 0.654-0.85 1.291-1.33 1.914-1.44 0.621-0.119 1.283 0.091 1.985 0.631 0.697 0.536 1.065 1.117 1.104 1.744 0.043 0.621-0.262 1.357-0.915 2.207-0.654 0.85-1.281 1.338-1.882 1.465z" fill="black"></path><path d="M57.538 23.091c1.741-1.171 3.239-1.444 4.494-0.819 1.251 0.619 2.704 2.159 4.358 4.619 1.65 2.454 2.563 4.469 2.739 6.044 0.174 1.584-0.628 2.975-2.408 4.172v0c-1.393 0.937-2.609 1.229-3.649 0.876v0l-0.116 0.078 0.267 0.988-3.64 2.448-11.986-17.827 4.644-3.122 3.238 4.818 0.108-0.073c0.339-0.822 0.989-1.556 1.951-2.202zM63.393 32.855c-0.149-0.365-0.319-0.713-0.509-1.042-0.195-0.326-0.59-0.932-1.185-1.816-0.591-0.879-1.113-1.511-1.564-1.898-0.443-0.384-0.864-0.443-1.262-0.175-0.398 0.268-0.719 0.644-0.963 1.129v0l3.869 5.754c0.469-0.067 0.867-0.209 1.193-0.429 0.321-0.216 0.512-0.432 0.574-0.65 0.056-0.215 0.005-0.505-0.153-0.873z" fill="black"></path><path d="M96.358 11.866v0c-0.564 0.135-0.887 0.414-0.97 0.838-0.085 0.418-0.034 1.018 0.153 1.803v0l2.837-0.678-0.185-0.778c-0.245-1.024-0.856-1.419-1.835-1.185zM95.38 7.169v0c2.235-0.534 3.964-0.379 5.186 0.467 1.229 0.843 2.082 2.266 2.56 4.267v0c0.062 0.259 0.264 1.45 0.608 3.574v0l-7.424 1.774c0.39 1.633 1.333 2.27 2.829 1.912v0c0.719-0.172 2.061-0.76 4.027-1.763v0l1.423 3.933c-1.691 1.007-3.449 1.728-5.277 2.165v0c-2.235 0.534-4.128 0.209-5.677-0.975-1.542-1.179-2.614-3.029-3.216-5.549v0c-1.299-5.435 0.355-8.703 4.961-9.805z" fill="black"></path><path d="M147.086 2.454l5.234 0.803-5.012 20.286-6.824-1.047-0.391-9.379-0.267-0.041-2.887 8.877-6.854-1.052 1.002-20.901 5.432 0.833-0.813 11.035 0.336 0.051 3.064-10.689 5.531 0.848-0.152 11.136 0.336 0.052z" fill="black"></path><path d="M186.929 28.41v0l-3.718 5.855c-0.22 0.365-0.276 0.666-0.169 0.901 0.111 0.23 0.386 0.477 0.825 0.741v0l-2.518 3.219c-1.156-0.586-1.793-0.915-1.913-0.987v0c-1.416-0.851-2.021-1.88-1.817-3.085v0l-0.145-0.088c-1.295 0.551-2.678 0.383-4.152-0.502v0c-1.13-0.68-1.776-1.565-1.935-2.656-0.169-1.089 0.127-2.267 0.889-3.534v0c0.954-1.587 2.109-2.389 3.463-2.406 1.353-0.026 3.15 0.507 5.393 1.598v0l0.417-0.694c0.323-0.537 0.216-0.966-0.321-1.288v0c-0.919-0.553-2.523-1.136-4.812-1.751v0l1.803-4.628c2.83 0.839 5.058 1.747 6.685 2.725 1.627 0.978 2.575 1.98 2.846 3.005 0.27 1.025-0.004 2.217-0.821 3.575zM177.127 32.169v0c0.708 0.426 1.287 0.264 1.736-0.483v0l0.844-1.404c-0.766-0.329-1.358-0.482-1.775-0.461-0.417 0.021-0.77 0.272-1.058 0.751v0c-0.426 0.708-0.342 1.24 0.253 1.597z" fill="black"></path><path d="M216.647 50.838l3.418 4.265-14.658 7.368-4.949-6.175 10.366-12.724 3.686 4.6-7.122 7.552 0.274 0.343z" fill="black"></path><path d="M231.437 87.626v0c-0.188-0.548-0.497-0.844-0.927-0.886-0.424-0.045-1.017 0.063-1.779 0.325v0l0.946 2.76 0.756-0.26c0.996-0.341 1.33-0.988 1.004-1.939zM236.019 86.203v0c0.745 2.174 0.756 3.909 0.032 5.207-0.722 1.304-2.056 2.289-4.004 2.957v0c-0.252 0.086-1.418 0.402-3.499 0.946v0l-2.475-7.221c-1.588 0.544-2.132 1.544-1.634 3v0c0.24 0.699 0.953 1.979 2.141 3.84v0l-3.78 1.792c-1.164-1.587-2.05-3.268-2.659-5.045v0c-0.745-2.174-0.603-4.089 0.428-5.745 1.026-1.648 2.765-2.891 5.216-3.732v0c5.286-1.812 8.697-0.479 10.234 4.001z" fill="black"></path><path d="M30.394 159.528l2.061 5.947-21.715 3.644-3.022-8.723 19.231-10.809 2.163 6.24-12.825 6.443 0.196 0.566z" fill="black"></path><path d="M42.583 191.197l-13.131 10.114-3.518-4.567 13.131-10.115zM40.392 186.175c0.036-0.641 0.423-1.246 1.162-1.816 0.739-0.569 1.431-0.795 2.075-0.678 0.649 0.122 1.315 0.627 1.998 1.513 0.683 0.887 0.999 1.657 0.947 2.31-0.047 0.659-0.438 1.271-1.171 1.836-0.728 0.561-1.414 0.778-2.058 0.652-0.634-0.125-1.293-0.631-1.976-1.518-0.683-0.887-1.008-1.653-0.977-2.299z" fill="black"></path><path d="M67.108 211.758c1.817 1.225 2.668 2.566 2.553 4.022-0.109 1.461-1.026 3.47-2.75 6.027-1.728 2.563-3.323 4.238-4.786 5.027-1.454 0.787-3.109 0.555-4.965-0.696v0c-1.453-0.979-2.216-2.04-2.289-3.182v0l-0.116-0.078-0.854 0.641-3.795-2.558 12.528-18.582 4.838 3.262-3.379 5.012 0.116 0.078c0.927 0.007 1.894 0.349 2.899 1.027zM59.967 221.259c0.293-0.292 0.558-0.596 0.795-0.911 0.245-0.316 0.677-0.933 1.295-1.85 0.618-0.917 1.024-1.668 1.217-2.252 0.203-0.586 0.097-1.019-0.317-1.298-0.42-0.283-0.909-0.444-1.469-0.484v0l-4.049 6.006c0.249 0.417 0.545 0.741 0.887 0.971 0.337 0.227 0.62 0.326 0.849 0.296 0.226-0.025 0.49-0.184 0.792-0.478z" fill="black"></path><path d="M97.92 229.952v0c-0.589-0.142-1.023-0.034-1.301 0.323-0.277 0.351-0.513 0.935-0.71 1.751v0l2.953 0.712 0.197-0.816c0.258-1.068-0.122-1.725-1.139-1.97zM99.227 225.128v0c2.331 0.562 3.867 1.525 4.607 2.889 0.74 1.364 0.859 3.088 0.356 5.173v0c-0.066 0.272-0.442 1.476-1.128 3.613v0l-7.751-1.869c-0.411 1.703 0.168 2.743 1.734 3.121v0c0.745 0.18 2.268 0.269 4.571 0.27v0l-0.541 4.33c-2.046 0.13-4.021-0.034-5.924-0.493v0c-2.331-0.562-3.937-1.758-4.819-3.588-0.875-1.828-0.995-4.056-0.361-6.685v0c1.366-5.666 4.451-7.919 9.256-6.761z" fill="black"></path><path d="M143.234 220.773l5.463-0.83 1.322 21.759-7.122 1.081-3.309-9.219-0.277 0.042-0.108 9.738-7.161 1.087-5.501-21.124 5.67-0.861 2.624 11.233 0.346-0.052-0.274-11.59 5.769-0.876 3.316 11.128 0.346-0.052z" fill="black"></path><path d="M183.028 213.873v0l3.581 6.299c0.226 0.377 0.473 0.575 0.74 0.592 0.267 0.018 0.632-0.111 1.095-0.389v0l1.721 3.897c-1.111 0.776-1.727 1.199-1.847 1.271v0c-1.479 0.888-2.724 0.943-3.734 0.167v0l-0.146 0.087c-0.133 1.462-0.967 2.654-2.503 3.576v0c-1.182 0.709-2.315 0.873-3.4 0.49-1.084-0.383-2.022-1.234-2.813-2.553v0c-0.994-1.656-1.169-3.113-0.525-4.37 0.644-1.257 2.017-2.651 4.12-4.184v0l-0.432-0.719c-0.336-0.56-0.784-0.672-1.343-0.336v0c-0.96 0.576-2.286 1.764-3.979 3.564v0l-3.381-3.926c2.165-2.192 4.098-3.799 5.8-4.82 1.696-1.018 3.081-1.402 4.155-1.153 1.077 0.255 2.041 1.09 2.891 2.507zM181.692 224.753v0c0.737-0.442 0.87-1.054 0.4-1.836v0l-0.879-1.465c-0.679 0.539-1.109 1.007-1.29 1.403-0.187 0.4-0.132 0.848 0.166 1.345v0c0.446 0.743 0.98 0.927 1.603 0.553z" fill="black"></path><path d="M203.778 188.079l3.57-4.437 10.811 13.275-5.173 6.431-15.301-7.694 3.858-4.796 9.3 5.559 0.288-0.358z" fill="black"></path><path d="M224.299 159.335v0c-0.198 0.573-0.133 1.015 0.196 1.326 0.323 0.309 0.881 0.601 1.674 0.876v0l0.994-2.87-0.793-0.275c-1.039-0.36-1.729-0.045-2.071 0.943zM219.624 157.568v0c0.785-2.266 1.892-3.701 3.32-4.306 1.429-0.605 3.157-0.556 5.184 0.146v0c0.264 0.092 1.427 0.582 3.487 1.472v0l-2.61 7.534c1.655 0.573 2.747 0.098 3.275-1.425v0c0.251-0.724 0.487-2.231 0.71-4.523v0l4.257 0.957c-0.068 2.049-0.423 3.998-1.063 5.848v0c-0.785 2.266-2.13 3.749-4.036 4.45-1.904 0.694-4.134 0.599-6.689-0.287v0c-5.507-1.907-7.452-5.196-5.835-9.866z" fill="black"></path><path d="M2.217 124.551c0-4.58 3.713-8.294 8.294-8.294 4.58 0 8.294 3.713 8.293 8.294 0 4.58-3.713 8.294-8.293 8.294-4.58 0-8.294-3.713-8.294-8.294z" fill="black"></path><path d="M225.627 124.551c0-4.58 3.713-8.294 8.294-8.294 4.58 0 8.294 3.713 8.293 8.294 0 4.58-3.713 8.294-8.293 8.294-4.58 0-8.294-3.713-8.294-8.294z" fill="black"></path></g><g id="SvgjsG1699"></g></svg></g></svg></g></svg></g><defs><mask></mask></defs></svg><rect width="395.52" height="141.66923070792058" fill="black" stroke="none" visibility="hidden"></rect></g></mask></svg><rect width="395.52" height="141.66923070792058" fill="black" stroke="none" visibility="hidden"></rect></g></mask><linearGradient x1="0" x2="1" y1="0.548" y2="0.55" id="69f90984-7c67-46b9-b116-d49cbca05fba"><stop stop-color="#ff6cab" offset="0"></stop><stop stop-color="#7366ff" offset="1"></stop></linearGradient><rect width="395.52" height="141.66923070792058" fill="url(#69f90984-7c67-46b9-b116-d49cbca05fba)" mask="url(#e39e673a-09b1-4743-abfc-4dca37dfa268)" data-fill-palette-color="accent"></rect></svg><rect width="395.52" height="141.66923070792058" fill="none" stroke="none" visibility="hidden"></rect></g></svg></g></svg>